<svg width="18" height="18" viewBox="0 0 18 18" fill="none" xmlns="http://www.w3.org/2000/svg">
<path d="M9 0.875C7.39303 0.875 5.82214 1.35152 4.486 2.24431C3.14985 3.1371 2.10844 4.40605 1.49348 5.8907C0.87852 7.37535 0.717618 9.00901 1.03112 10.5851C1.34463 12.1612 2.11846 13.6089 3.25476 14.7452C4.39106 15.8815 5.8388 16.6554 7.4149 16.9689C8.99099 17.2824 10.6247 17.1215 12.1093 16.5065C13.594 15.8916 14.8629 14.8502 15.7557 13.514C16.6485 12.1779 17.125 10.607 17.125 9C17.1225 6.84588 16.2657 4.7807 14.7425 3.25751C13.2193 1.73431 11.1541 0.87749 9 0.875ZM11.9419 11.0581C12 11.1161 12.0462 11.185 12.0776 11.2609C12.1091 11.3367 12.1254 11.418 12.1254 11.5001C12.1255 11.5823 12.1093 11.6636 12.0779 11.7395C12.0465 11.8153 12.0004 11.8843 11.9424 11.9424C11.8843 12.0004 11.8154 12.0465 11.7395 12.0779C11.6636 12.1093 11.5823 12.1254 11.5001 12.1254C11.418 12.1254 11.3367 12.1091 11.2609 12.0776C11.185 12.0462 11.1161 12 11.0581 11.9419L9 9.88379L6.9419 11.9419C6.82466 12.0589 6.66577 12.1246 6.50014 12.1245C6.33451 12.1244 6.1757 12.0585 6.05858 11.9414C5.94146 11.8243 5.87563 11.6655 5.87554 11.4999C5.87545 11.3342 5.94112 11.1753 6.05811 11.0581L8.11621 9L6.05811 6.94189C5.94112 6.82465 5.87545 6.66576 5.87554 6.50014C5.87563 6.33451 5.94146 6.17569 6.05858 6.05858C6.1757 5.94146 6.33451 5.87563 6.50014 5.87554C6.66577 5.87545 6.82466 5.94111 6.9419 6.05811L9 8.11621L11.0581 6.05811C11.1754 5.94111 11.3342 5.87545 11.4999 5.87554C11.6655 5.87563 11.8243 5.94146 11.9414 6.05858C12.0585 6.17569 12.1244 6.33451 12.1245 6.50014C12.1246 6.66576 12.0589 6.82465 11.9419 6.94189L9.88379 9L11.9419 11.0581Z" fill="white"/>
</svg>
