<svg width="145" height="144" viewBox="0 0 145 144" fill="none" xmlns="http://www.w3.org/2000/svg">
<mask id="mask0" style="mask-type:alpha" maskUnits="userSpaceOnUse" x="0" y="0" width="145" height="144">
<path d="M144.5 72C144.5 32.2355 112.265 0 72.5 0C32.7355 0 0.5 32.2355 0.5 72C0.5 111.765 32.7355 144 72.5 144C112.265 144 144.5 111.765 144.5 72Z" fill="white"/>
</mask>
<g mask="url(#mask0)">
<path d="M144.5 0H0.5V144H144.5V0Z" fill="#1D2143"/>
<path d="M95.4704 25.5736C56.5748 17.3061 18.3416 42.1351 10.0741 81.0306C1.80663 119.926 26.6356 158.159 65.5311 166.427C104.427 174.694 142.66 149.865 150.927 110.97C159.195 72.0743 134.366 33.8411 95.4704 25.5736Z" fill="#0147FA"/>
<path d="M44.375 91.2998C44.2362 95.2756 46.2089 99.1621 49.8591 102.104C53.5094 105.047 58.5382 106.804 63.8393 106.989C69.1404 107.174 74.2796 105.772 78.1262 103.091C81.9728 100.411 84.2118 96.6716 84.3506 92.6958" fill="white"/>
<path d="M46.931 75.3793C47.0081 73.1715 45.7282 71.3349 44.0724 71.2771C42.4165 71.2193 41.0117 72.9622 40.9346 75.1699C40.8575 77.3777 42.1373 79.2144 43.7932 79.2722C45.449 79.33 46.8539 77.5871 46.931 75.3793Z" fill="white"/>
<path d="M86.908 76.7752C86.9851 74.5674 85.7053 72.7307 84.0494 72.6729C82.3936 72.6151 80.9888 74.358 80.9117 76.5658C80.8346 78.7736 82.1144 80.6102 83.7703 80.668C85.4261 80.7259 86.8309 78.983 86.908 76.7752Z" fill="white"/>
</g>
</svg>
